<?xml version="1.0" encoding="utf-8"?>
<!-- Generator: Adobe Illustrator 21.0.0, SVG Export Plug-In . SVG Version: 6.00 Build 0)  -->
<svg version="1.1" id="Layer_1" xmlns="http://www.w3.org/2000/svg" xmlns:xlink="http://www.w3.org/1999/xlink" x="0px" y="0px"
	 viewBox="0 0 353.6 353.6" style="enable-background:new 0 0 353.6 353.6;" xml:space="preserve">
<style type="text/css">
	.st0{fill:#FFFFFF;}
	.st1{fill:#CF9B51;}
</style>
<path class="st0" d="M176.8,353.6c97.6,0,176.8-79.2,176.8-176.8S274.4,0,176.8,0S0,79.2,0,176.8S79.2,353.6,176.8,353.6"/>
<g>
	<path class="st1" d="M250.2,186.8c9.5-22.6,5.8-52-8.5-71.3l-0.2-1.2l13.8-24.4l0-1.7c-0.6-1.2-1.8-1.7-3.1-1.8L231,86.5
		c-2.2,0.1-3.9,1.6-5.6,3l-17.6,30.6c-0.8,1.4-1.3,3.6-0.4,5.1c3.6,3.6,7.4,7.6,9.8,12c7.4,11.8,7.8,30.5,0.7,42.6
		c-8.8,16-25.6,24.4-43.5,23.1c-4.8,0.3-10.1-4.1-13.8,0.7l-12.2,21.4c-1,1.4-1.1,3.6-0.2,5.1c0.8,1.2,2.2,2,3.7,2.2l37.2-0.2
		c6.7-0.7,13.2-1.9,19.3-4.1C226.6,222.3,243.8,204.8,250.2,186.8z"/>
	<path class="st1" d="M116.3,204.2l-13.6,24.1l-0.3,1.8c0.2,1.1,1.1,2,2.2,2.2l22,0c2-0.5,3.9-1.4,5.3-3.1
		c6.2-10.5,12.5-21,18.3-31.8c1.8-6.3-5.9-8.4-8.1-13.4c-8.6-11.5-10-30.1-3.5-43.1c6.7-14.7,22.1-24.8,37.9-25.6
		c5.8-0.6,11,1,16.4,1.8c1.4-0.2,2.8-0.8,3.7-2.2l12.8-22.3c0.7-1.5,0.5-3.6-0.7-4.8c-0.9-1.4-2.7-1.3-4.4-1.6
		c-12,0.3-23.6-0.3-35.7,0.1c-22.1,1.8-42.9,12.9-55.1,32.9c-14.2,20.7-15.5,53.7-2.6,75.5C112.6,198.1,114.8,200.9,116.3,204.2z"/>
	<path class="st1" d="M180.3,138.2c1-0.5,2.3-1.4,2.5-2.7c0.4-1.2,0.1-2.9-0.7-3.9c-1.2-1.5-3.8-1.7-5.4-0.8c-1.2,0.7-2.1,2.2-2,3.8
		c0.2,1.2,0.6,2.5,1.8,3.1C177.4,138.4,179,138.4,180.3,138.2z"/>
	<path class="st1" d="M212.7,152.6c-2-5.3-7.5-8.4-13.1-8.5c-3.9-5.3-11.5-7.3-17.3-4.1c-1.3,0.7-2.5,2.1-3.8,2.7
		c-2.4-1.9-4.7-3.7-7.7-4c-5.3-1-10,1.4-13.2,5.6c-1.9,0.2-3.9,0.4-5.6,1.1c-4.1,1.6-7.2,5.7-7.8,10c-1.7,7.8,5.4,12.2,9.6,17.8
		l0.8,0.3l44.9,0l4.1-0.3C208.7,167.4,216.3,161.2,212.7,152.6z M167.9,144.4c2.9-0.2,5.8,1.3,7,4l0,0.8c-3.9,0.3-7.6-1.1-10.9-2.5
		C164.6,145.1,166.5,144.9,167.9,144.4z M164.5,167.7l-7.5-0.1c-3.3-3.8-9.2-7.8-6.3-13.4c0.7-1.9,2.8-3,4.6-3.5l0.4,0.6
		c-0.4,6.7,5.8,10.8,9.3,15.9L164.5,167.7z M175.3,167.3c-3,1-4.1-3.4-6.4-5c-2.3-3-5.6-5.5-6.7-9l0.4-0.2c4,1.6,8.3,2.3,12.7,2.8
		C175.7,159.6,175.6,163.7,175.3,167.3z M187.8,144.5c2.1-0.4,4.2,0.4,5.4,1.9c-1.7,1.3-4.2,1.7-6.4,2.2c-1.4,0.1-3,0.8-4.3,0.3
		C183.1,146.5,185.4,144.7,187.8,144.5z M182.1,167.5c-0.5-3.9-0.2-7.7-0.1-11.6c4.5-0.6,8.7-1.6,12.8-3.2c0.7,0.6-0.1,1.6-0.3,2.3
		l-10.3,12.3C183.7,167.7,182.8,167.8,182.1,167.5z M192.7,167.5l-0.3-0.3c3.7-5.3,9.7-9.6,9.4-16.7c1.8,0.3,3.6,1.2,4.6,2.9
		c1,1.7,1.3,4.2,0.6,6.2c-1.7,2.8-4.1,5.5-6.5,7.9C198,167.7,195.3,167.7,192.7,167.5z"/>
	<path class="st1" d="M154.6,176.4c-0.5,1.7-0.6,4.1,0.1,5.7l47.6,0l1-0.3c0.2-1.7,0.3-3.7-0.1-5.4C187,176.1,171,176.2,154.6,176.4
		z"/>
	<path class="st1" d="M70.1,254.1c-4.2,0-7.5,2-7.5,6.6c0,2.7,2,6.1,6.3,6.1c1.8,0,2.9-0.3,4.4-1.4c0,2.5-0.8,4.3-2.9,4.3
		c-1.1,0-1.9-0.5-2.2-1.5l-5.2,0.3c0.8,3.8,4.1,4.9,7.7,4.9c5.2,0,8.2-3.9,8.2-9.7C78.9,257.1,75.5,254.1,70.1,254.1z M70.4,263.2
		c-1.4,0-2.3-1-2.3-2.5c0-1.6,0.8-2.6,2.4-2.6c1.3,0,2.5,1.1,2.5,2.4C73,262,72.3,263.1,70.4,263.2z"/>
	<path class="st1" d="M88.5,254.1c-4.3,0-8.1,2.6-8.1,9.5c0,5.4,2.1,9.9,8.1,9.9c6.1,0,8.1-4.6,8.1-10
		C96.6,257.4,93.4,254.1,88.5,254.1z M91.1,263.9c0,3.1-0.6,5.5-2.6,5.5c-2.1,0-2.6-2.2-2.6-5.5c0-1.8,0.1-5.6,2.6-5.6
		C91.2,258.3,91.1,261.9,91.1,263.9z"/>
	<rect x="98.9" y="263.9" class="st1" width="7.1" height="4.8"/>
	<path class="st1" d="M107.5,258.5v3.8h4.3v10.9h5.5v-19h-4.2C112.5,257.4,110.4,258.4,107.5,258.5z"/>
	<path class="st1" d="M128.3,254.1c-4.3,0-8.1,2.6-8.1,9.5c0,5.4,2.1,9.9,8.1,9.9c6.1,0,8.1-4.6,8.1-10
		C136.4,257.4,133.2,254.1,128.3,254.1z M130.9,263.9c0,3.1-0.6,5.5-2.6,5.5c-2.1,0-2.6-2.2-2.6-5.5c0-1.8,0.1-5.6,2.6-5.6
		C131,258.3,130.9,261.9,130.9,263.9z"/>
	<path class="st1" d="M146,254.1c-4.3,0-8.1,2.6-8.1,9.5c0,5.4,2.1,9.9,8.1,9.9c6.1,0,8.1-4.6,8.1-10
		C154.2,257.4,150.9,254.1,146,254.1z M148.6,263.9c0,3.1-0.6,5.5-2.6,5.5c-2.1,0-2.6-2.2-2.6-5.5c0-1.8,0.1-5.6,2.6-5.6
		C148.7,258.3,148.6,261.9,148.6,263.9z"/>
	<path class="st1" d="M166.8,259.3c0-3.2-2.7-5.8-5.9-5.8c-3.2,0-5.9,2.6-5.9,5.8c0,3.2,2.7,5.9,5.9,5.9
		C164.2,265.1,166.8,262.5,166.8,259.3z M160.9,261.5c-1.2,0-2.3-1-2.3-2.3c0-1.2,1.1-2.2,2.3-2.2c1.2,0,2.3,1,2.3,2.2
		C163.2,260.5,162.1,261.5,160.9,261.5z"/>
	<polygon class="st1" points="172.5,253.3 161.2,274 163.9,274 175.1,253.3 	"/>
	<path class="st1" d="M175.5,262.1c-3.2,0-5.9,2.7-5.9,5.9c0,3.2,2.7,5.8,5.9,5.8c3.2,0,5.8-2.6,5.8-5.8
		C181.3,264.8,178.7,262.1,175.5,262.1z M175.5,270.2c-1.2,0-2.3-1-2.3-2.2c0-1.3,1.1-2.3,2.3-2.3c1.2,0,2.2,1.1,2.2,2.3
		C177.7,269.1,176.7,270.2,175.5,270.2z"/>
	<path class="st1" d="M204.1,260.1l1-1.5l-1.3-0.9l-1.1,1.7c-0.9-0.3-2-0.6-3.5-0.6c-4.7,0-7.9,2.7-7.9,7.5c0,2.9,1.2,4.9,3.2,6
		l-1.2,2l1.4,0.8l1.3-2c1,0.4,2.1,0.5,3.3,0.5c4.4,0,7.9-2.4,7.9-7.5C207.1,262.6,205.2,260.9,204.1,260.1z M196.8,266.1
		c0-1.5,0.5-3.5,2.4-3.5c0.4,0,0.9,0.1,1.2,0.4l-3.3,5.3C196.9,267.5,196.8,266.7,196.8,266.1z M199.2,269.8c-0.4,0-0.7-0.1-1.1-0.3
		l3.2-5.1c0.1,0.5,0.3,1.1,0.3,1.6C201.6,268.6,200.7,269.8,199.2,269.8z"/>
	<polygon class="st1" points="225.1,259.2 218.7,259.2 215.1,263.5 215.1,254 209.6,254 209.6,273.2 215.1,273.2 215.1,269.3 
		216.2,268.2 219.2,273.2 225.8,273.2 220,264.6 	"/>
	<path class="st1" d="M234.2,258.8c-4.7,0-7.9,2.7-7.9,7.5c0,4.8,3.5,7.2,7.9,7.2c4.5,0,7.9-2.4,7.9-7.5
		C242.2,261.7,239.2,258.8,234.2,258.8z M234.3,269.8c-1.4,0-2.4-1.1-2.4-3.8c0-1.6,0.6-3.5,2.4-3.5c1.4-0.1,2.3,1.5,2.3,3.5
		C236.7,268.7,235.8,269.8,234.3,269.8z"/>
	<rect x="244.9" y="254" class="st1" width="5.5" height="19.2"/>
	<path class="st1" d="M261.1,258.8c-4.7,0-7.9,2.7-7.9,7.5c0,4.8,3.5,7.2,7.9,7.2c4.5,0,7.9-2.4,7.9-7.5
		C269.1,261.7,266,258.8,261.1,258.8z M261.1,269.8c-1.4,0-2.4-1.1-2.4-3.8c0-1.6,0.6-3.5,2.4-3.5c1.4-0.1,2.3,1.5,2.3,3.5
		C263.5,268.7,262.6,269.8,261.1,269.8z"/>
	<path class="st1" d="M281.5,261.1c-1-1.4-2.6-2.2-4.2-2.2c-4.6,0-6.2,3.6-6.2,7.1c0,3.6,2.2,6.6,6.1,6.6c2,0,3.2-0.7,4-1.5v1.1
		c0,2-0.6,2.7-2.2,2.7c-0.6,0-1-0.1-1.2-0.3c-0.2-0.2-0.3-0.5-0.3-0.6h-5.6c0.3,2,2.3,4,7.3,4c6.9,0,7.3-3.3,7.3-7.4v-11.2h-4.9
		V261.1z M278.8,268.7c-1.5,0-2.2-1.3-2.2-2.7c0-1.8,0.5-3.2,2.2-3.2c1.8,0,2.3,1.5,2.3,3C281.1,267.3,280.5,268.8,278.8,268.7z"/>
	<rect x="289.7" y="253.5" class="st1" width="5.5" height="3.9"/>
	<rect x="289.7" y="259.2" class="st1" width="5.5" height="13.9"/>
	<path class="st1" d="M82.1,127.8c4.4-3.2,4.2-8.9,4.2-11.1c0-9.5-3.9-25.1-5.8-31.7c-0.2-0.5-0.4-0.9-0.9-0.9
		c-0.3,0-0.6,0.1-0.6,0.5c-0.1,1.1-0.6,24.7-0.6,25.3c-0.1,1.6-3.7,1.6-3.8,0.1c-0.1-0.6-2.5-24.5-2.5-24.6h0c0-0.3-0.2-0.9-0.9-0.9
		c-0.7,0-0.9,0.6-0.9,0.9h0c-0.1,0.1-2.5,24-2.6,24.6c-0.2,1.5-3.8,1.5-3.8-0.1c0-0.6-0.6-24.2-0.6-25.3c0-0.4-0.3-0.5-0.6-0.5
		c-0.5,0-0.7,0.3-0.9,0.9c-2,6.5-5.8,22.2-5.8,31.7c0,2.2-0.2,7.9,4.2,11.1c2.8,2,4.3,3.3,4.8,7.9c0.2,1.9,0.4,9,0.3,11.5
		c-0.1,2.7-1,33.7-1,33.7l-0.8,26c0,0-0.7,18.1-0.7,18.9c0,2.7,0.5,4,2.1,4.9c1.2,0.8,3.5,1.2,5.4,1.2h1.8c1.9,0,4.2-0.5,5.4-1.2
		c1.5-1,2.1-2.3,2.1-4.9c0-0.8-0.7-18.9-0.7-18.9l-0.8-26c0,0-0.9-30.9-1-33.7c-0.1-2.5,0.1-9.6,0.3-11.5
		C77.8,131.1,79.3,129.8,82.1,127.8z"/>
	<path class="st1" d="M296.5,154c0-16.9,0-16.9,1-66.3c0-2.4-0.3-2.6-1-2.6c-0.5,0-1.1,0.5-1.8,1.6c-0.7,1.1-10.3,15.2-22.5,75.5
		c-0.1,0.5-0.1,0.9-0.1,1.3c0,1.8,2.6,2.9,10.2,5.3c2.6,0.8,3,2.5,2.5,6.5c-1.4,11.8-6.1,47.2-3.5,52.9c1.4,2.9,5.6,4,8.3,4
		c6.8,0,8.3-1.7,8.3-4.1C297.8,207.6,296.5,169.9,296.5,154z"/>
</g>
</svg>
